<?xml version="1.0" encoding="UTF-8"?>
<svg id="Layer_1" xmlns="http://www.w3.org/2000/svg" viewBox="0 0 319.57 330.95">
  <defs>
    <style>
      .cls-1 {
        fill: #fff;
      }
    </style>
  </defs>
  <path d="M46.55,0c2.51,14.97,7.15,29.03,16.63,41.25,10.26,13.22,23.67,22.35,38.16,30.08,17.91,9.55,36.65,17.47,53.9,28.35,14.7,9.27,26.16,21.24,33.05,37.1,8.59,19.78,7.21,39.78-1.34,59.18-5.87,13.31-13.08,25.93-25.67,34.36-.97.65-1.97,1.26-2.99,1.8-.4.21-.92.18-2.93.53,5.58-6.23,9.33-12.24,11.22-19.31-9.42,13.08-20.95,22.91-37.43,25.28-9.26,1.33-18.43.88-27.64-2.38,15.18-4.18,26.81-13.5,37.51-24.38-16.76,9.72-34.64,13.44-53.73,9.84-7.84-1.48-15.17-4.5-22.7-10.15,11.12-1.48,20.93-3.65,30.27-7.42,9.42-3.8,18.56-8.22,26.91-14.39-18.07,5.77-36.37,8.75-55.02,3.85-18.92-4.97-33.75-15.83-44.51-32.96,30.13,9.64,59.76,7.31,88.26-2.02C41.08,166.26,9.45,120.89,0,80.46c15.58,12.43,31.82,21.03,49.2,27.61,17.55,6.65,35.7,10.4,54.33,12.53-7.94-3.11-15.83-6.22-23.37-10.12-25.61-13.26-39.55-34.12-41.85-63.02-1.23-15.46,1.45-30.14,6.62-44.55C45.25,1.99,45.35.97,45.55,0c.33,0,.67,0,1,0Z"/>
  <path d="M318.01,323.97c-34.83,9.8-68.76,7.3-102.64-7.53,2.34,3.75,5.6,5.4,8.18,7.68,2.57,2.27,5.38,4.27,8.65,6.82-22.46-.67-55.74-14.91-58.07-46.7-4.82,9.4-4.24,18.35-1,28.53-3.96-3.24-5.87-6.66-7.98-9.77-9.32-13.75-13.65-28.72-10.72-45.44,1.63-9.29,7.11-16.52,12.75-23.44,12.51-15.34,23.54-31.45,29.87-50.41,2.5-7.5,9.41-10.99,14.59-16.04,1.07-1.04,2.27-1.97,3.51-2.8,12.11-8.04,20.45-18.92,26.86-32.02,8.14-16.62,28.89-23.4,45.41-16.2,5.74,2.5,10.25,6.52,12.71,12.16,1.92,4.42,4.89,7.32,8.77,9.81,5.22,3.35,9.55,7.54,10.68,14.58-4.83-6.18-11.36-6.35-18.13-6.24-13.25.21-23.81,8.44-26.75,21.51-1.42,6.32-2.36,12.76-3.45,19.15-4.76,27.93-22.33,44.45-47.98,53.65-7.52,2.7-7.84,2.63-5.04,10.14,9.57,25.72,27.57,44.06,51.22,57.1,14.09,7.76,29.01,13.4,45.28,14.67,1.11.09,2.2.52,3.3.79Z"/>
  <path d="M198.06,172.22c0-6.07.54-12.2-.1-18.2-1.81-16.95-9.54-31.14-21.15-43.53-14.08-15.03-19.56-33.19-18.4-53.52.03-.47.28-.92.96-3.02,3.08,13.67,9.72,23.46,20.54,30.67-10.34-23.78-8.05-46.14,6.66-67.2-.4,6.57-1.51,13.09-.57,19.69,1.72,12.1,8.47,21.4,16.46,30.09,6.41,6.97,14.38,12.32,20.21,19.93,8.62,11.24,14.18,23.73,15.32,37.78.78,9.66-2.52,18.51-9.77,25.17-8.93,8.2-19.66,14.18-28.44,22.63-.58-.16-1.15-.32-1.73-.48Z"/>
  <path class="cls-1" d="M276.25,125.81c6.35-1.65,9.46-.57,12.47,4.11-4.95,3.79-9.13,2.52-12.47-4.11Z"/>
</svg>